<?xml version="1.0" encoding="utf-8"?>
<!-- Generator: Adobe Illustrator 27.3.1, SVG Export Plug-In . SVG Version: 6.00 Build 0)  -->
<svg version="1.1" id="Capa_1" xmlns="http://www.w3.org/2000/svg" xmlns:xlink="http://www.w3.org/1999/xlink" x="0px" y="0px"
	 viewBox="0 0 800 800" style="enable-background:new 0 0 800 800;" xml:space="preserve">
<style type="text/css">
	.st0{fill:#5084D1;}
	.st1{fill:#FFEFBC;}
	.st2{fill:#556099;}
	.st3{fill:#50CED1;}
</style>
<g>
	<path class="st0" d="M775,175H25c-13.8,0-25,11.2-25,25v400c0,13.8,11.2,25,25,25h750c13.8,0,25-11.2,25-25V200
		C800,186.2,788.8,175,775,175z"/>
	<g>
		<path class="st1" d="M737.5,300c-34.5,0-62.5-28-62.5-62.5c0-6.9-5.6-12.5-12.5-12.5h-525c-6.9,0-12.5,5.6-12.5,12.5
			C125,272,97,300,62.5,300c-6.9,0-12.5,5.6-12.5,12.5v175c0,6.9,5.6,12.5,12.5,12.5c34.5,0,62.5,28,62.5,62.5
			c0,6.9,5.6,12.5,12.5,12.5h525c6.9,0,12.5-5.6,12.5-12.5c0-34.5,28-62.5,62.5-62.5c6.9,0,12.5-5.6,12.5-12.5v-175
			C750,305.6,744.4,300,737.5,300z"/>
	</g>
	<g>
		<path class="st2" d="M200,400c0,75.3,41.7,140.9,103.3,175h193.5C558.3,540.9,600,475.3,600,400s-41.7-140.9-103.3-175H303.2
			C241.7,259.1,200,324.7,200,400z"/>
	</g>
	<g>
		<path class="st1" d="M400,381.2c-25,0-43.8-13.2-43.8-25s18.7-25,43.8-25c25,0,43.8,13.2,43.8,25c0,10.4,8.4,18.8,18.8,18.8
			s18.8-8.4,18.8-18.8c0-30.1-26.3-54.5-62.5-60.8v-7.9c0-10.4-8.4-18.8-18.8-18.8s-18.8,8.4-18.8,18.8v7.9
			c-36.2,6.4-62.5,30.8-62.5,60.8c0,35,35.7,62.5,81.2,62.5c25,0,43.8,13.2,43.8,25s-18.7,25-43.8,25s-43.8-13.2-43.8-25
			c0-10.4-8.4-18.8-18.8-18.8s-18.8,8.4-18.8,18.8c0,30.1,26.3,54.5,62.5,60.8v7.9c0,10.4,8.4,18.8,18.8,18.8s18.8-8.4,18.8-18.8
			v-7.9c36.2-6.4,62.5-30.8,62.5-60.8C481.2,408.7,445.6,381.2,400,381.2z"/>
	</g>
	<g>
		<circle class="st3" cx="125" cy="400" r="37.5"/>
	</g>
	<g>
		<circle class="st3" cx="675" cy="400" r="37.5"/>
	</g>
	<g>
		<circle class="st3" cx="62.5" cy="237.5" r="25"/>
	</g>
	<g>
		<circle class="st3" cx="737.5" cy="237.5" r="25"/>
	</g>
	<g>
		<circle class="st3" cx="62.5" cy="562.5" r="25"/>
	</g>
	<g>
		<circle class="st3" cx="737.5" cy="562.5" r="25"/>
	</g>
</g>
</svg>
